<svg width="186" height="154" viewBox="0 0 186 154" fill="none" xmlns="http://www.w3.org/2000/svg">
<path d="M159.241 166.51L201.542 142.09L285.443 86.0914L286.363 63.4266L275.205 49.0914L220.012 50.6544L142.501 118.161L159.241 166.51Z" fill="#6E7A8B"/>
<path d="M196.551 150.373C190.908 168.723 179.155 179.923 170.3 175.389C161.445 170.855 158.841 152.303 164.484 133.954C170.126 115.604 181.879 104.404 190.734 108.938C199.59 113.472 202.194 132.023 196.551 150.373Z" fill="#3A4049"/>
<path d="M173.144 144.982C167.501 163.332 155.749 174.532 146.893 169.998C138.038 165.464 135.434 146.912 141.077 128.563C146.72 110.213 158.472 99.013 167.328 103.547C176.183 108.081 178.787 126.633 173.144 144.982Z" fill="#3A4049"/>
<path d="M189.363 108.36L165.571 102.999L148.703 170.703L172.514 176.19L189.363 108.36Z" fill="#3A4049"/>
<path fill-rule="evenodd" clip-rule="evenodd" d="M174.461 161.89C179.719 164.582 186.697 157.932 190.048 147.037C193.398 136.142 191.852 125.127 186.594 122.435C181.336 119.743 174.358 126.393 171.008 137.288C167.657 148.183 169.204 159.198 174.461 161.89ZM173.503 165.005C179.591 168.122 187.671 160.422 191.551 147.807C195.43 135.191 193.64 122.437 187.552 119.32C181.464 116.203 173.384 123.903 169.505 136.518C165.625 149.134 167.416 161.888 173.503 165.005Z" fill="#4B545F"/>
<path d="M185.289 123.188C186.149 121.71 187.284 122.291 187.124 124.128L186.493 131.408C186.295 133.694 186.8 135.589 187.813 136.365L191.039 138.836C191.853 139.459 191.516 141.875 190.494 142.744L186.443 146.187C185.17 147.269 184.108 149.373 183.663 151.692L182.249 159.077C181.892 160.94 180.549 161.852 180.076 160.552L178.203 155.4C177.615 153.783 176.454 153.188 175.166 153.845L171.065 155.938C170.03 156.467 169.537 154.614 170.268 152.942L173.162 146.315C174.07 144.234 174.415 141.762 174.064 139.849L172.944 133.758C172.662 132.221 173.7 130.164 174.624 130.431L178.285 131.487C179.435 131.818 180.809 130.885 181.88 129.046L185.289 123.188Z" fill="#4B545F"/>
<path d="M182.028 142.935C181.499 144.655 180.397 145.705 179.567 145.28C178.736 144.855 178.492 143.116 179.021 141.395C179.55 139.675 180.652 138.625 181.482 139.05C182.313 139.475 182.557 141.215 182.028 142.935Z" fill="#3A4049"/>
<path d="M178.953 135.951C178.689 136.811 178.811 137.681 179.226 137.893C179.641 138.106 180.192 137.581 180.457 136.721C180.721 135.861 180.599 134.991 180.184 134.778C179.769 134.566 179.218 135.091 178.953 135.951Z" fill="#3A4049"/>
<path d="M183.463 138.259C183.199 139.119 183.321 139.988 183.736 140.201C184.151 140.413 184.702 139.889 184.967 139.028C185.231 138.168 185.109 137.299 184.694 137.086C184.279 136.873 183.728 137.398 183.463 138.259Z" fill="#3A4049"/>
<path d="M180.586 147.608C180.321 148.468 180.443 149.338 180.858 149.55C181.273 149.763 181.824 149.238 182.089 148.378C182.353 147.518 182.231 146.648 181.816 146.435C181.401 146.223 180.85 146.748 180.586 147.608Z" fill="#3A4049"/>
<path d="M176.08 145.296C175.815 146.156 175.937 147.026 176.352 147.239C176.768 147.451 177.319 146.926 177.583 146.066C177.848 145.206 177.725 144.336 177.31 144.124C176.895 143.911 176.344 144.436 176.08 145.296Z" fill="#3A4049"/>
<path d="M236.387 19.8426L277.897 27.8841C279.661 28.2257 280.732 30.167 280.166 31.993L279.034 35.6418L285.141 41.7344C287.785 44.3717 289.156 48.1662 288.861 52.029L286.701 80.3356C286.553 82.2847 286.197 84.185 285.652 86.0054V76.5819C285.652 64.8465 274.002 57.3513 264.373 62.8913C251.217 70.46 243.006 85.1921 243.006 101.225V118.481L237.151 124.165C236.659 124.642 236.021 124.906 235.358 124.906H231.976L201.83 142.022V123.979C201.83 112.244 190.18 104.749 180.551 110.289C167.395 117.857 159.183 132.59 159.183 148.622V166.354C145.289 173.306 137.209 175.205 123.154 173.884L24.1723 153.766C17.805 152.471 12.0427 148.872 7.84576 143.567C3.93883 138.629 1.60037 132.481 1.17057 126.016L0.0592422 109.3C-0.642764 98.7415 4.85327 88.831 13.8306 84.4678L60.6548 61.7104L78.6837 27.345C81.7356 21.5278 86.8059 17.2442 92.7874 15.4297L137.379 1.90239C143.041 0.184799 148.953 -0.376891 154.807 0.246441L217.702 6.94267C224.008 7.61411 229.796 10.9904 233.755 16.3071L236.387 19.8426Z" fill="#00B0FF"/>
<path d="M22.214 115.667V150.066C22.214 151.447 23.129 152.633 24.3924 152.888L108.749 169.974C110.396 170.308 111.918 168.951 111.918 167.151V133.853C111.918 125.527 106.379 118.392 98.756 116.897L34.8291 104.363C28.262 103.076 22.214 108.495 22.214 115.667Z" fill="#3A4049"/>
<path d="M104.69 138.314L110.452 136.146V156.209L94.8058 168.246L30.8 154.604L23.6883 138.554V117.689L26.7459 121.714C27.5279 122.744 28.6179 123.45 29.8302 123.713L99.0384 138.732C100.923 139.141 102.875 138.996 104.69 138.314Z" fill="#00B0FF"/>
<path d="M83.9756 141.46C83.9756 140.56 83.308 139.697 82.4845 139.533L37.7506 130.626C36.9271 130.462 36.2595 131.058 36.2595 131.958V146.624C36.2595 147.524 36.9271 148.387 37.7506 148.551L82.4845 157.458C83.308 157.622 83.9756 157.026 83.9756 156.126V141.46Z" fill="#282D33"/>
<path fill-rule="evenodd" clip-rule="evenodd" d="M82.8579 142.866C82.8579 141.741 82.0234 140.663 80.994 140.458L39.2424 132.145C38.213 131.94 37.3785 132.686 37.3785 133.811V145.217C37.3785 146.342 38.213 147.421 39.2424 147.626L80.994 155.939C82.0234 156.144 82.8579 155.398 82.8579 154.273V142.866ZM80.994 141.273C81.6116 141.396 82.1123 142.043 82.1123 142.718V154.125C82.1123 154.8 81.6116 155.247 80.994 155.124L39.2424 146.811C38.6248 146.688 38.1241 146.041 38.1241 145.366V133.959C38.1241 133.284 38.6248 132.836 39.2424 132.959L80.994 141.273Z" fill="#3A4049"/>
<path d="M42.1219 144.41L40.5166 144.09V137.677C40.5166 136.602 40.9905 136.159 41.9384 136.347L42.7869 136.516C43.3449 136.628 43.7424 136.902 43.9794 137.34C44.2011 136.993 44.5986 136.877 45.1719 136.991L46.0204 137.16C46.9682 137.349 47.4422 137.981 47.4422 139.056V145.469L45.8369 145.149V138.59C45.8369 138.524 45.814 138.463 45.7681 138.405C45.7299 138.348 45.6802 138.314 45.6191 138.302L44.9999 138.179C44.9387 138.166 44.8852 138.18 44.8394 138.22C44.8011 138.261 44.782 138.314 44.782 138.38V144.939L43.1768 144.62V138.06C43.1768 137.995 43.1538 137.933 43.108 137.875C43.0697 137.819 43.0201 137.784 42.9589 137.772L42.3397 137.649C42.2786 137.637 42.2251 137.651 42.1792 137.69C42.141 137.732 42.1219 137.785 42.1219 137.85V144.41Z" fill="#F0F2F3"/>
<path d="M53.0746 138.687L51.4808 143.39V146.273L49.8755 145.954V143.071L48.2817 137.733L49.7952 138.034L50.6781 141.508L51.561 138.386L53.0746 138.687Z" fill="#F0F2F3"/>
<path d="M57.9445 140.964V142.369C57.9445 142.434 57.9636 142.495 58.0018 142.551C58.0477 142.609 58.1012 142.644 58.1623 142.656L59.2516 142.873C60.1995 143.062 60.6734 143.694 60.6734 144.769V146.613C60.6734 147.688 60.1995 148.131 59.2516 147.943L57.9789 147.689C57.031 147.501 56.5571 146.869 56.5571 145.794V145.207L58.0821 145.511V146.134C58.0821 146.199 58.1012 146.26 58.1394 146.316C58.1853 146.374 58.2388 146.41 58.2999 146.422L58.9764 146.556C59.0376 146.569 59.0873 146.554 59.1255 146.513C59.1714 146.473 59.1943 146.421 59.1943 146.355V144.609C59.1943 144.543 59.1714 144.482 59.1255 144.424C59.0873 144.367 59.0376 144.333 58.9764 144.321L57.8986 144.106C56.9507 143.918 56.4768 143.286 56.4768 142.211V139.365L60.3753 140.141V141.448L57.9445 140.964Z" fill="#F0F2F3"/>
<path d="M65.6829 145.058C66.0422 145.398 66.2218 145.894 66.2218 146.545V147.718C66.2218 148.793 65.7479 149.236 64.8 149.047L63.447 148.778C62.4991 148.589 62.0252 147.957 62.0252 146.883V146.235L63.4584 146.52V147.241C63.4584 147.306 63.4776 147.367 63.5158 147.424C63.5616 147.482 63.6152 147.517 63.6763 147.529L64.5821 147.709C64.6433 147.721 64.693 147.707 64.7312 147.666C64.7771 147.626 64.8 147.573 64.8 147.508V145.823C64.8 145.757 64.7771 145.696 64.7312 145.638C64.693 145.581 64.6433 145.547 64.5821 145.535L63.4011 145.3V143.98L64.5133 144.202C64.5745 144.214 64.6242 144.2 64.6624 144.158C64.7083 144.119 64.7312 144.066 64.7312 144.001V142.462C64.7312 142.397 64.7083 142.335 64.6624 142.277C64.6242 142.221 64.5745 142.186 64.5133 142.174L63.7451 142.021C63.684 142.009 63.6304 142.023 63.5846 142.062C63.5464 142.104 63.5272 142.157 63.5272 142.222V143.004L62.094 142.718V141.973C62.094 140.898 62.5679 140.455 63.5158 140.644L64.7312 140.886C65.6791 141.075 66.153 141.707 66.153 142.782V143.832C66.153 144.467 65.9963 144.876 65.6829 145.058Z" fill="#F0F2F3"/>
<path d="M67.5069 141.561L71.2907 142.314L69.7543 149.912L68.2981 149.622L69.502 143.265L67.5069 142.868V141.561Z" fill="#F0F2F3"/>
<path d="M76.1856 147.149C76.5449 147.489 76.7245 147.985 76.7245 148.637V149.809C76.7245 150.884 76.2506 151.328 75.3027 151.139L73.9497 150.869C73.0019 150.681 72.5279 150.049 72.5279 148.974V148.326L73.9612 148.612V149.333C73.9612 149.398 73.9803 149.458 74.0185 149.515C74.0644 149.573 74.1179 149.608 74.1791 149.62L75.0849 149.801C75.146 149.813 75.1957 149.798 75.2339 149.757C75.2798 149.717 75.3027 149.665 75.3027 149.6V147.914C75.3027 147.849 75.2798 147.787 75.2339 147.729C75.1957 147.673 75.146 147.638 75.0849 147.626L73.9039 147.391V146.072L75.0161 146.293C75.0772 146.305 75.1269 146.291 75.1651 146.25C75.211 146.21 75.2339 146.157 75.2339 146.092V144.553C75.2339 144.488 75.211 144.426 75.1651 144.368C75.1269 144.312 75.0772 144.278 75.0161 144.265L74.2479 144.112C74.1867 144.1 74.1332 144.114 74.0873 144.154C74.0491 144.195 74.03 144.248 74.03 144.313V145.095L72.5967 144.81V144.065C72.5967 142.99 73.0707 142.547 74.0185 142.735L75.2339 142.977C76.1818 143.166 76.6558 143.798 76.6558 144.873V145.923C76.6558 146.559 76.499 146.967 76.1856 147.149Z" fill="#F0F2F3"/>
<path d="M79.7181 144.005V151.908L78.1587 151.598V143.694L79.7181 144.005Z" fill="#F0F2F3"/>
<path d="M172.562 48.3419L162.051 78.8316C161.562 80.2497 160.121 81.0134 158.771 80.5863C120.721 68.552 99.401 63.7443 67.0985 63.2123C66.0888 63.1957 65.4465 62.0316 65.9312 61.0798L82.4853 28.5761C84.6941 24.2393 89.2372 21.9063 93.7657 22.7837L166.464 36.8679C171.377 37.8199 174.296 43.3117 172.562 48.3419Z" fill="#F3F6FA"/>
<path d="M173.009 73.9149L183.231 40.3908C184.181 37.2767 186.219 34.6806 188.916 33.1499L205.114 23.9563L214.731 56.333L177.181 77.6912C174.842 79.0213 172.186 76.6164 173.009 73.9149Z" fill="#D2DCEC"/>
<path d="M221.005 52.7646L209.588 21.4168L219.713 15.6701C222.056 14.3398 224.939 14.858 226.752 16.9356L243.106 35.6779C244.433 37.1979 244.051 39.6568 242.337 40.6317L221.005 52.7646Z" fill="#D2DCEC"/>
<path d="M95.7417 105.84L44.2719 95.3076L45.2776 92.5463C45.9752 90.6311 47.8353 89.5125 49.7196 89.8751L92.4381 98.0951C94.35 98.463 95.7417 100.25 95.7417 102.336V105.84Z" fill="#3A4049"/>
<mask id="mask0_40_147647" style="mask-type:alpha" maskUnits="userSpaceOnUse" x="1" y="76" width="34" height="33">
<path d="M30.4841 76.2712C30.6351 76.4177 30.7833 76.5689 30.9285 76.7249C36.6714 82.8948 35.5075 94.1487 28.3288 101.861C21.1502 109.574 10.6752 110.824 4.93229 104.654C3.17903 102.77 2.0695 100.413 1.57832 97.8271C3.81895 92.0184 8.04904 87.1751 13.6195 84.4677L30.4841 76.2712Z" fill="#E4EAF4"/>
</mask>
<g mask="url(#mask0_40_147647)">
<path d="M7.71452 83.2416C1.79539 89.6008 0.835711 98.8802 5.57101 103.968C10.3063 109.055 18.9434 108.024 24.8626 101.665C30.7817 95.3054 31.7414 86.0261 27.0061 80.9387C22.2708 75.8512 13.6336 76.8823 7.71452 83.2416Z" fill="#C0CEE5"/>
<path fill-rule="evenodd" clip-rule="evenodd" d="M6.51633 102.952C2.48905 98.6253 3.05504 90.2787 8.65983 84.2572C14.2646 78.2356 22.0335 77.6275 26.0607 81.9543C30.088 86.281 29.522 94.6275 23.9172 100.649C18.3124 106.671 10.5436 107.279 6.51633 102.952ZM5.57101 103.968C0.835711 98.8802 1.79539 89.6008 7.71452 83.2416C13.6336 76.8823 22.2708 75.8512 27.0061 80.9387C31.7414 86.0261 30.7817 95.3054 24.8626 101.665C18.9434 108.024 10.3063 109.055 5.57101 103.968Z" fill="#E4EAF4"/>
<path fill-rule="evenodd" clip-rule="evenodd" d="M21.9853 86.329C24.512 89.0436 24.2501 94.4496 20.521 98.456C16.7919 102.462 11.7601 102.744 9.23335 100.029C6.70663 97.3145 6.96851 91.9085 10.6976 87.9021C14.4267 83.8957 19.4585 83.6144 21.9853 86.329ZM22.4116 100.487C26.7694 95.8054 27.8187 88.5337 23.8759 84.2978C19.9331 80.0618 13.1647 81.1891 8.80697 85.8709C4.44921 90.5527 3.39995 97.8244 7.34272 102.06C11.2855 106.296 18.0539 105.169 22.4116 100.487Z" fill="#F3F6FA"/>
<path d="M20.6772 93.8984C20.925 92.3344 19.9459 90.8507 18.4902 90.5844L10.7114 89.1614C9.25571 88.8951 7.87467 89.9471 7.62681 91.5111L7.41337 92.8579C7.16551 94.4218 8.14467 95.9056 9.60039 96.1718L17.3791 97.5948C18.8348 97.8611 20.2159 96.8091 20.4637 95.2451L20.6772 93.8984Z" fill="#F3F6FA"/>
</g>
<path d="M120.552 103.752C113.977 110.816 112.911 121.124 118.171 126.776C123.431 132.427 133.026 131.282 139.601 124.218C146.176 117.153 147.242 106.845 141.982 101.194C136.722 95.5427 127.127 96.6881 120.552 103.752Z" fill="#C0CEE5"/>
<path fill-rule="evenodd" clip-rule="evenodd" d="M119.116 125.76C114.564 120.869 115.236 111.494 121.497 104.768C127.758 98.0414 136.484 97.319 141.037 102.21C145.589 107.1 144.916 116.476 138.655 123.202C132.395 129.928 123.668 130.651 119.116 125.76ZM118.171 126.776C112.911 121.124 113.977 110.816 120.552 103.752C127.127 96.6881 136.722 95.5427 141.982 101.194C147.242 106.845 146.176 117.153 139.601 124.218C133.026 131.282 123.431 132.427 118.171 126.776Z" fill="#E4EAF4"/>
<path fill-rule="evenodd" clip-rule="evenodd" d="M136.514 107.067C139.4 110.167 139.065 116.276 134.888 120.764C130.71 125.252 125.024 125.611 122.139 122.511C119.254 119.411 119.588 113.303 123.766 108.815C127.943 104.327 133.629 103.967 136.514 107.067ZM136.778 122.795C141.584 117.631 142.706 109.657 138.405 105.036C134.104 100.415 126.681 101.62 121.875 106.783C117.069 111.947 115.947 119.921 120.249 124.542C124.55 129.164 131.972 127.958 136.778 122.795Z" fill="#F3F6FA"/>
<path d="M134.997 115.277C135.244 113.713 134.265 112.229 132.809 111.963L123.584 110.275C122.128 110.009 120.747 111.061 120.5 112.625L120.163 114.748C119.915 116.312 120.894 117.796 122.35 118.062L131.575 119.75C133.031 120.016 134.412 118.964 134.66 117.4L134.997 115.277Z" fill="#F3F6FA"/>
<path fill-rule="evenodd" clip-rule="evenodd" d="M149.448 76.9596C149.22 76.5059 148.693 76.3366 148.27 76.5814L113.595 96.6868C106.139 101.01 101.491 109.379 101.491 118.481H103.229C103.229 110.065 107.526 102.327 114.42 98.33L149.096 78.2246C149.518 77.9797 149.676 77.4134 149.448 76.9596Z" fill="#0095D8"/>
<path fill-rule="evenodd" clip-rule="evenodd" d="M81.8038 63.5294C81.5758 63.0756 81.0487 62.9063 80.6264 63.1512L45.9507 83.2566C38.4949 87.5796 33.8472 95.9483 33.8472 105.051H35.5852C35.5852 96.6345 39.8824 88.8968 46.7761 84.8997L81.4518 64.7944C81.8741 64.5495 82.0317 63.9831 81.8038 63.5294Z" fill="#0095D8"/>
<mask id="mask1_40_147647" style="mask-type:alpha" maskUnits="userSpaceOnUse" x="65" y="22" width="108" height="59">
<path d="M172.228 49.3078L162.137 78.5807C161.599 80.1405 160.017 80.9813 158.531 80.5119C120.718 68.5604 99.4303 63.7662 67.3195 63.2171C66.2087 63.1981 65.5041 61.9175 66.0374 60.8705L82.1145 29.3033C84.5442 24.5327 89.5416 21.9665 94.5229 22.9316L165.52 36.6864C170.925 37.7335 174.136 43.7745 172.228 49.3078Z" fill="#F3F6FA"/>
</mask>
<g mask="url(#mask1_40_147647)">
<path d="M158.975 89.0887L94.014 3.93588L47.2116 3.93588L118.323 97.1509L155.023 97.1509C157.205 97.1509 158.975 95.2539 158.975 92.9138L158.975 89.0887Z" fill="white"/>
<path d="M182.504 89.0887L117.107 3.93588L104.564 3.93588L176.153 97.1509L178.526 97.1509C180.723 97.1509 182.504 95.2539 182.504 92.9138L182.504 89.0887Z" fill="white"/>
</g>
<path d="M136.324 53.3083L132.456 65.7986C132.247 66.471 132.623 67.1849 133.296 67.3934L156.423 74.5685C157.123 74.7859 157.863 74.3684 158.038 73.656L161.691 58.8394C161.864 58.1397 161.422 57.4361 160.717 57.2869L137.805 52.4381C137.161 52.3017 136.519 52.6789 136.324 53.3083Z" fill="#051ED1"/>
<path d="M137.513 53.5004L136.131 57.7034C136.093 57.8208 136.162 57.9463 136.282 57.976L140.286 58.969C140.395 58.996 140.506 58.9337 140.54 58.8268L141.913 54.4794C141.951 54.3598 141.877 54.2336 141.755 54.2076L137.759 53.3588C137.652 53.3363 137.546 53.3973 137.513 53.5004Z" fill="white"/>
<path d="M137.63 53.9939L136.564 57.3052C136.488 57.5409 136.628 57.7913 136.869 57.8489L139.862 58.5646C140.08 58.6166 140.3 58.4914 140.367 58.2781L141.428 54.8837C141.503 54.6445 141.356 54.3929 141.111 54.341L138.123 53.7085C137.91 53.6634 137.697 53.7866 137.63 53.9939Z" fill="#BCF6E6"/>
<path d="M136.712 60.8306L135.806 63.7999C135.6 64.4775 135.985 65.1935 136.664 65.3944L154.172 70.57C154.859 70.7733 155.579 70.3696 155.765 69.6768L157.979 61.4001C158.163 60.7123 157.748 60.0071 157.057 59.834L151.065 58.3315C150.412 58.1678 149.744 58.5397 149.54 59.1809L148.851 61.3428C148.647 61.9815 147.984 62.3534 147.332 62.1939L138.235 59.9641C137.577 59.8031 136.909 60.1834 136.712 60.8306Z" fill="#B4BDFD"/>
<path d="M143.97 57.5031C143.743 57.1565 143.841 56.9291 143.993 56.8021C144.088 56.7226 144.152 56.595 144.124 56.4743C143.989 55.8845 144.432 55.7655 144.617 55.6602C144.753 55.5834 144.753 55.4617 144.727 55.3822C144.716 55.3508 144.705 55.3188 144.705 55.2858C144.706 55.0721 144.791 55.0122 144.879 55.0135C144.964 55.0148 145.055 55.0199 145.129 54.9786C145.625 54.7018 145.953 55.0602 146.119 55.4174C146.178 55.5455 146.336 55.6081 146.467 55.5561C146.95 55.3646 147.237 55.5584 147.374 55.7701C147.431 55.8588 147.53 55.9146 147.635 55.931C147.815 55.9595 147.812 56.106 147.768 56.2238C147.751 56.2701 147.708 56.3064 147.693 56.3533C147.665 56.4397 147.664 56.6271 147.773 56.9828C147.86 57.2657 147.71 57.4847 147.507 57.6377C147.353 57.754 147.3 58.0902 147.385 58.2639C147.523 58.5472 147.552 58.9005 147.54 59.1616C147.536 59.2635 147.451 59.3404 147.349 59.3458L146.941 59.3674C145.88 59.4235 145.551 58.2174 145.506 58.3794C145.461 58.5413 145.601 59.1723 145.615 59.4375C145.629 59.7028 145.425 59.8731 145.417 59.714C145.411 59.5927 145.274 59.4365 145.196 59.364C145.189 59.3572 145.181 59.3511 145.173 59.3452C144.748 59.0406 144.96 58.1469 144.775 58.6308C144.588 59.1195 145.068 59.1473 144.702 59.273C144.439 59.3634 144.331 58.9649 144.301 58.6907C144.295 58.6346 144.27 58.5821 144.23 58.5418C143.864 58.1669 144.306 58.0975 144.023 57.5893C143.409 57.8012 143.35 57.9109 143.3 57.9109C143.024 57.9109 143.737 57.5968 143.976 57.5122C143.974 57.5092 143.972 57.5061 143.97 57.5031Z" fill="#BCF6E6"/>
<path d="M149.524 62.7102L149.611 62.417C149.626 62.3932 149.659 62.3655 149.709 62.3338C149.76 62.3014 149.821 62.2674 149.891 62.2318C149.961 62.1965 150.034 62.1613 150.11 62.1264C150.185 62.0915 150.255 62.0594 150.32 62.0301C150.399 61.9942 150.477 61.9557 150.554 61.9145C150.631 61.8733 150.699 61.826 150.758 61.7725C150.817 61.719 150.857 61.6556 150.878 61.5825C150.907 61.4852 150.907 61.402 150.877 61.3329C150.847 61.2629 150.784 61.2137 150.689 61.1854C150.611 61.1624 150.545 61.1611 150.489 61.1815C150.434 61.201 150.387 61.2377 150.35 61.2917C150.313 61.3457 150.282 61.4124 150.259 61.4918L149.904 61.3866C149.945 61.2483 150.006 61.1358 150.087 61.0491C150.168 60.9616 150.267 60.9045 150.384 60.8779C150.501 60.8513 150.632 60.8596 150.777 60.9028C150.917 60.9443 151.026 61.0053 151.104 61.0858C151.183 61.1654 151.232 61.2575 151.251 61.3623C151.272 61.4665 151.265 61.5757 151.231 61.69C151.208 61.7676 151.172 61.8364 151.122 61.8964C151.073 61.9558 151.017 62.008 150.953 62.0532C150.889 62.0983 150.824 62.1376 150.756 62.1711C150.689 62.2045 150.625 62.2342 150.565 62.2601C150.468 62.301 150.38 62.3396 150.302 62.3758C150.226 62.4113 150.162 62.4435 150.112 62.4723C150.063 62.5013 150.03 62.5275 150.013 62.5507L150.895 62.8124L150.812 63.0922L149.524 62.7102Z" fill="#2D333A"/>
<path d="M151.764 63.4064C151.644 63.3709 151.55 63.3139 151.481 63.2352C151.413 63.1567 151.366 63.0628 151.342 62.9535C151.318 62.8444 151.312 62.7256 151.323 62.5971C151.336 62.4677 151.362 62.3347 151.402 62.1982C151.443 62.0616 151.493 61.9358 151.554 61.8206C151.614 61.7046 151.685 61.607 151.764 61.5277C151.845 61.4488 151.936 61.3945 152.036 61.3649C152.137 61.3356 152.247 61.3387 152.366 61.3742C152.486 61.4097 152.58 61.4671 152.647 61.5464C152.716 61.626 152.762 61.7208 152.786 61.8307C152.81 61.9407 152.815 62.0608 152.803 62.1911C152.792 62.3208 152.766 62.4539 152.725 62.5905C152.685 62.727 152.634 62.8527 152.573 62.9676C152.512 63.0818 152.443 63.1781 152.363 63.2565C152.283 63.3348 152.193 63.3882 152.093 63.4166C151.993 63.4453 151.883 63.4419 151.764 63.4064ZM151.847 63.1253C151.915 63.1454 151.979 63.1366 152.038 63.099C152.098 63.0605 152.156 62.9907 152.211 62.8895C152.266 62.7884 152.319 62.6535 152.369 62.4849C152.419 62.3153 152.449 62.1731 152.458 62.0582C152.467 61.9433 152.456 61.8538 152.427 61.7897C152.397 61.7247 152.349 61.6821 152.281 61.662C152.214 61.6422 152.15 61.6514 152.089 61.6896C152.029 61.727 151.971 61.7963 151.916 61.8974C151.86 61.9985 151.808 62.1338 151.757 62.3034C151.707 62.473 151.677 62.6152 151.669 62.7301C151.66 62.844 151.671 62.9337 151.701 62.9989C151.731 63.0633 151.78 63.1054 151.847 63.1253Z" fill="#2D333A"/>
<path d="M152.707 63.654L152.793 63.3609C152.808 63.3371 152.841 63.3094 152.891 63.2776C152.942 63.2453 153.003 63.2113 153.073 63.1757C153.143 63.1403 153.216 63.1052 153.292 63.0703C153.367 63.0354 153.437 63.0033 153.502 62.974C153.581 62.9381 153.659 62.8995 153.736 62.8584C153.814 62.8172 153.882 62.7699 153.94 62.7164C153.999 62.6629 154.039 62.5995 154.061 62.5263C154.089 62.429 154.089 62.3459 154.059 62.2768C154.029 62.2068 153.967 62.1576 153.871 62.1293C153.793 62.1062 153.727 62.1049 153.671 62.1253C153.616 62.1449 153.57 62.1816 153.532 62.2356C153.495 62.2896 153.464 62.3563 153.441 62.4357L153.086 62.3305C153.127 62.1921 153.188 62.0796 153.269 61.993C153.35 61.9054 153.449 61.8484 153.566 61.8218C153.683 61.7952 153.814 61.8035 153.959 61.8467C154.099 61.8882 154.208 61.9492 154.287 62.0297C154.365 62.1092 154.414 62.2014 154.433 62.3062C154.454 62.4104 154.447 62.5196 154.413 62.6338C154.39 62.7115 154.354 62.7803 154.304 62.8403C154.255 62.8996 154.199 62.9519 154.135 62.997C154.071 63.0422 154.006 63.0815 153.938 63.1149C153.871 63.1484 153.808 63.1781 153.747 63.2039C153.65 63.2449 153.562 63.2835 153.484 63.3197C153.408 63.3552 153.344 63.3874 153.294 63.4162C153.245 63.4452 153.212 63.4713 153.195 63.4946L154.077 63.7563L153.994 64.0361L152.707 63.654Z" fill="#2D333A"/>
<path d="M154.315 64.131L154.402 63.8378C154.416 63.8141 154.449 63.7863 154.499 63.7546C154.55 63.7223 154.611 63.6883 154.681 63.6527C154.751 63.6173 154.825 63.5822 154.9 63.5473C154.975 63.5123 155.046 63.4802 155.111 63.451C155.189 63.4151 155.267 63.3765 155.344 63.3353C155.422 63.2942 155.49 63.2468 155.548 63.1933C155.607 63.1398 155.647 63.0765 155.669 63.0033C155.698 62.906 155.697 62.8228 155.667 62.7537C155.637 62.6837 155.575 62.6346 155.479 62.6063C155.401 62.5832 155.335 62.5819 155.279 62.6023C155.224 62.6218 155.178 62.6586 155.14 62.7126C155.103 62.7665 155.072 62.8332 155.049 62.9127L154.694 62.8074C154.735 62.6691 154.796 62.5566 154.877 62.47C154.959 62.3824 155.057 62.3253 155.174 62.2988C155.291 62.2722 155.422 62.2805 155.567 62.3236C155.707 62.3652 155.817 62.4262 155.895 62.5067C155.973 62.5862 156.022 62.6784 156.041 62.7832C156.062 62.8874 156.055 62.9966 156.021 63.1108C155.998 63.1885 155.962 63.2573 155.912 63.3173C155.863 63.3766 155.807 63.4289 155.743 63.474C155.679 63.5192 155.614 63.5585 155.546 63.5919C155.479 63.6254 155.416 63.6551 155.356 63.6809C155.258 63.7219 155.17 63.7605 155.093 63.7966C155.016 63.8322 154.953 63.8643 154.902 63.8931C154.853 63.9222 154.82 63.9483 154.803 63.9715L155.685 64.2332L155.602 64.513L154.315 64.131Z" fill="#2D333A"/>
<path d="M148.691 65.3761L148.753 65.1667C148.764 65.1497 148.787 65.1299 148.823 65.1072C148.86 65.0841 148.903 65.0599 148.953 65.0344C149.003 65.0092 149.055 64.9841 149.109 64.9591C149.163 64.9342 149.213 64.9113 149.26 64.8903C149.316 64.8647 149.372 64.8372 149.427 64.8078C149.482 64.7784 149.53 64.7445 149.572 64.7063C149.614 64.6681 149.643 64.6229 149.658 64.5706C149.679 64.5011 149.679 64.4417 149.657 64.3923C149.636 64.3423 149.591 64.3072 149.523 64.287C149.468 64.2705 149.42 64.2696 149.38 64.2842C149.341 64.2981 149.308 64.3244 149.281 64.3629C149.254 64.4015 149.232 64.4491 149.216 64.5058L148.962 64.4307C148.992 64.3319 149.035 64.2515 149.093 64.1896C149.151 64.1271 149.222 64.0863 149.305 64.0673C149.388 64.0484 149.482 64.0543 149.586 64.0851C149.686 64.1148 149.764 64.1584 149.82 64.2158C149.876 64.2727 149.911 64.3385 149.925 64.4134C149.939 64.4878 149.934 64.5658 149.91 64.6474C149.894 64.7028 149.868 64.752 149.832 64.7948C149.797 64.8372 149.757 64.8746 149.712 64.9068C149.666 64.939 149.619 64.9671 149.571 64.991C149.523 65.0149 149.478 65.0361 149.435 65.0546C149.365 65.0839 149.302 65.1114 149.247 65.1372C149.192 65.1626 149.147 65.1856 149.111 65.2062C149.076 65.2269 149.052 65.2456 149.04 65.2622L149.67 65.4491L149.611 65.649L148.691 65.3761Z" fill="#2D333A"/>
<path d="M150.29 65.8744C150.209 65.8504 150.147 65.817 150.104 65.7743C150.06 65.7309 150.03 65.6841 150.013 65.634C149.997 65.5841 149.989 65.5357 149.991 65.489C149.992 65.4422 149.997 65.4029 150.007 65.371C150.007 65.3697 150.008 65.3688 150.008 65.3681C150.008 65.3675 150.008 65.3665 150.009 65.3653L150.244 65.435C150.243 65.4363 150.243 65.4373 150.243 65.4379C150.243 65.4386 150.242 65.4395 150.242 65.4408C150.237 65.4593 150.233 65.48 150.231 65.503C150.229 65.5254 150.231 65.5478 150.237 65.5703C150.244 65.5924 150.256 65.6127 150.274 65.6313C150.292 65.6492 150.318 65.6631 150.351 65.6729C150.399 65.6871 150.445 65.679 150.49 65.6487C150.536 65.6179 150.581 65.5608 150.626 65.4775C150.67 65.3944 150.714 65.2808 150.757 65.1367L150.819 65.1542C150.803 65.2029 150.775 65.244 150.734 65.2776C150.693 65.3105 150.643 65.3322 150.584 65.3426C150.526 65.3523 150.462 65.3469 150.393 65.3262C150.308 65.3011 150.242 65.2605 150.196 65.2044C150.149 65.1476 150.121 65.0817 150.111 65.0065C150.101 64.9315 150.108 64.8532 150.133 64.7716C150.16 64.6785 150.202 64.6011 150.258 64.5393C150.314 64.4768 150.382 64.435 150.462 64.4137C150.544 64.3927 150.635 64.3972 150.735 64.427C150.841 64.4584 150.92 64.5112 150.971 64.5855C151.024 64.6593 151.051 64.75 151.054 64.8576C151.057 64.9654 151.039 65.0859 151 65.2192C150.96 65.3537 150.914 65.4675 150.863 65.5605C150.812 65.6535 150.756 65.727 150.695 65.781C150.634 65.8346 150.57 65.8689 150.502 65.884C150.434 65.8993 150.364 65.8961 150.29 65.8744ZM150.503 65.1531C150.545 65.1656 150.586 65.1667 150.624 65.1566C150.662 65.1465 150.696 65.1256 150.725 65.0939C150.754 65.0618 150.777 65.0199 150.792 64.9683C150.808 64.9141 150.814 64.8635 150.81 64.8165C150.806 64.7689 150.793 64.7284 150.769 64.6951C150.746 64.662 150.714 64.6393 150.673 64.627C150.628 64.6138 150.588 64.6128 150.551 64.6241C150.515 64.6356 150.483 64.6589 150.456 64.6939C150.43 64.7282 150.408 64.7738 150.391 64.8305C150.375 64.8841 150.368 64.9331 150.371 64.9776C150.375 65.0217 150.388 65.0591 150.41 65.0899C150.432 65.1201 150.463 65.1412 150.503 65.1531Z" fill="#2D333A"/>
<path d="M151.422 66.186L152.205 64.8817L152.603 64.9997L152.545 66.5193L152.286 66.4424L152.357 65.0963L152.359 65.0969L151.681 66.2629L151.422 66.186ZM151.759 65.9125L151.819 65.7107L152.475 65.9053L152.415 66.1071L151.759 65.9125Z" fill="#2D333A"/>
<path d="M153.873 66.3555C153.82 66.5353 153.734 66.6556 153.616 66.7163C153.499 66.7773 153.36 66.7839 153.2 66.7362C153.04 66.689 152.928 66.6078 152.863 66.4928C152.798 66.3778 152.792 66.2304 152.845 66.0506C152.853 66.0245 152.861 65.9971 152.87 65.9684C152.878 65.9397 152.887 65.9097 152.896 65.8785L153.112 65.1527L153.364 65.2276L153.139 65.9859C153.131 66.0127 153.124 66.0379 153.117 66.0614C153.11 66.085 153.103 66.107 153.097 66.1274C153.064 66.2409 153.06 66.3297 153.087 66.3938C153.114 66.4581 153.172 66.5034 153.261 66.5297C153.351 66.5564 153.425 66.5502 153.483 66.5112C153.541 66.4723 153.587 66.3961 153.62 66.2826L153.887 65.3827L154.14 65.4576L153.873 66.3555Z" fill="#2D333A"/>
<path d="M154.514 67.1263C154.405 67.0937 154.313 67.0361 154.24 66.9533C154.167 66.8708 154.121 66.7678 154.1 66.6443C154.079 66.5209 154.091 66.382 154.137 66.2278C154.183 66.0729 154.249 65.9493 154.336 65.8572C154.423 65.7651 154.522 65.7045 154.632 65.6754C154.742 65.6458 154.855 65.6481 154.971 65.6823C155.066 65.7107 155.143 65.7507 155.2 65.8022C155.257 65.8533 155.299 65.9098 155.326 65.9719C155.353 66.0341 155.368 66.0953 155.37 66.1556C155.373 66.2161 155.368 66.27 155.354 66.3171C155.353 66.319 155.353 66.321 155.352 66.3229C155.351 66.3248 155.351 66.3267 155.35 66.3286L155.105 66.256C155.106 66.2541 155.107 66.2522 155.107 66.2503C155.108 66.2483 155.108 66.2464 155.109 66.2445C155.119 66.2114 155.123 66.1772 155.121 66.1419C155.119 66.1066 155.11 66.0724 155.094 66.0393C155.078 66.0061 155.055 65.9767 155.024 65.951C154.994 65.9253 154.955 65.9056 154.909 65.8918C154.846 65.873 154.781 65.873 154.715 65.8916C154.65 65.9104 154.589 65.9529 154.532 66.0192C154.475 66.0851 154.429 66.1798 154.392 66.3035C154.364 66.3972 154.35 66.4797 154.35 66.5511C154.35 66.6224 154.36 66.6833 154.38 66.7337C154.401 66.7844 154.43 66.8255 154.466 66.8571C154.504 66.8882 154.546 66.9108 154.593 66.9248C154.657 66.9437 154.713 66.9486 154.761 66.9394C154.81 66.9304 154.852 66.9131 154.885 66.8876C154.919 66.8623 154.943 66.8349 154.959 66.8056L154.992 66.6956L154.691 66.6063L154.747 66.4169L155.274 66.5732L155.068 67.2675L154.922 67.2244L154.948 67.0613C154.94 67.0714 154.925 67.0839 154.902 67.0988C154.881 67.1138 154.852 67.1271 154.816 67.1386C154.78 67.1495 154.737 67.1547 154.686 67.1543C154.636 67.1547 154.579 67.1454 154.514 67.1263Z" fill="#2D333A"/>
<path d="M139.278 61.4975L139.713 61.6114L139.338 63.0427L139.094 62.9789L139.427 61.7106L139.432 61.7141L138.793 62.8998L138.451 62.8103L138.472 61.4614L138.478 61.46L138.145 62.7302L137.902 62.6664L138.277 61.2351L138.712 61.349L138.663 62.7166L138.647 62.7123L139.278 61.4975Z" fill="#2D333A"/>
<path d="M140.964 61.9392L140.308 62.7681L140.179 63.263L139.922 63.1959L140.052 62.701L139.89 61.6577L140.161 61.7287L140.268 62.6134L140.165 62.5864L140.691 61.8678L140.964 61.9392Z" fill="#2D333A"/>
<path d="M142.454 62.5424L141.891 62.3946L141.732 62.7887C141.736 62.7821 141.745 62.7744 141.759 62.7656C141.774 62.7571 141.793 62.7497 141.818 62.7437C141.843 62.7372 141.873 62.7339 141.907 62.734C141.942 62.7341 141.981 62.7397 142.023 62.7509C142.149 62.7838 142.233 62.8508 142.276 62.952C142.32 63.0533 142.324 63.1721 142.288 63.3086C142.26 63.416 142.218 63.5019 142.163 63.5664C142.108 63.6308 142.041 63.673 141.962 63.693C141.883 63.7124 141.793 63.709 141.693 63.6827C141.611 63.6612 141.543 63.6307 141.491 63.5914C141.439 63.5515 141.4 63.5061 141.375 63.4552C141.35 63.4037 141.336 63.3495 141.333 63.2927C141.33 63.2353 141.336 63.1781 141.351 63.1211C141.351 63.1205 141.351 63.1198 141.351 63.1192C141.351 63.1185 141.351 63.1179 141.352 63.1173L141.605 63.1836C141.605 63.1843 141.605 63.1849 141.604 63.1856C141.604 63.1862 141.604 63.1869 141.604 63.1875C141.585 63.2663 141.588 63.3302 141.611 63.3791C141.635 63.4282 141.681 63.4618 141.75 63.4799C141.794 63.4915 141.834 63.4908 141.869 63.4779C141.905 63.4645 141.936 63.4388 141.963 63.4008C141.99 63.3624 142.012 63.3108 142.029 63.2461C142.052 63.1601 142.054 63.0897 142.035 63.035C142.017 62.9804 141.975 62.9447 141.911 62.9277C141.871 62.9174 141.834 62.9161 141.801 62.9238C141.767 62.9309 141.738 62.9429 141.713 62.96C141.689 62.9771 141.67 62.9949 141.656 63.0134L141.428 62.8875L141.734 62.141L142.506 62.3434L142.454 62.5424Z" fill="#2D333A"/>
<path d="M143.276 63.269C143.333 63.2859 143.376 63.3142 143.407 63.354C143.438 63.3939 143.457 63.4414 143.464 63.4965C143.471 63.5509 143.466 63.6085 143.45 63.6693C143.429 63.7502 143.393 63.8199 143.343 63.8786C143.293 63.9374 143.228 63.9778 143.149 64C143.07 64.0221 142.977 64.0192 142.87 63.9912C142.78 63.9675 142.707 63.936 142.652 63.8968C142.598 63.8569 142.558 63.8109 142.533 63.7587C142.508 63.7059 142.495 63.6485 142.494 63.5867C142.493 63.5249 142.501 63.4607 142.519 63.394C142.519 63.3934 142.519 63.3928 142.519 63.3921C142.519 63.3915 142.52 63.3908 142.52 63.3902L142.776 63.4573C142.776 63.4579 142.776 63.4586 142.775 63.4592C142.775 63.4599 142.775 63.4605 142.775 63.4612C142.756 63.5317 142.751 63.5887 142.759 63.6323C142.767 63.6759 142.785 63.7097 142.814 63.7339C142.843 63.7581 142.881 63.7762 142.927 63.7882C142.988 63.8043 143.042 63.7978 143.089 63.7686C143.137 63.739 143.172 63.6812 143.195 63.5951C143.204 63.5621 143.208 63.5311 143.208 63.5021C143.208 63.4724 143.202 63.4456 143.19 63.4216C143.178 63.3971 143.159 63.3756 143.133 63.357C143.107 63.3383 143.071 63.3232 143.027 63.3115L142.976 63.2982L143.025 63.1119L143.076 63.1252C143.12 63.1367 143.158 63.1404 143.19 63.1364C143.222 63.1324 143.249 63.1229 143.271 63.1079C143.294 63.0924 143.312 63.073 143.326 63.0496C143.34 63.0264 143.351 63.0013 143.358 62.9741C143.376 62.9055 143.37 62.8509 143.342 62.8102C143.314 62.7696 143.269 62.7414 143.209 62.7257C143.143 62.7082 143.084 62.7121 143.032 62.7373C142.98 62.7625 142.942 62.8223 142.918 62.9168L142.661 62.8497C142.678 62.7863 142.703 62.7294 142.735 62.6792C142.768 62.6291 142.809 62.5884 142.858 62.557C142.908 62.5249 142.965 62.5052 143.032 62.4976C143.099 62.4896 143.174 62.4966 143.258 62.5187C143.366 62.5468 143.448 62.5878 143.506 62.6417C143.565 62.6957 143.602 62.7567 143.619 62.8247C143.636 62.8922 143.636 62.96 143.619 63.0279C143.604 63.0822 143.581 63.1297 143.549 63.1704C143.517 63.2111 143.478 63.2409 143.431 63.2598C143.386 63.2783 143.334 63.2814 143.276 63.269Z" fill="#2D333A"/>
<path d="M144.501 63.0797L144.5 63.0816L143.871 62.9166L143.923 62.7148L144.829 62.952L144.779 63.1403C144.698 63.1728 144.624 63.218 144.557 63.276C144.491 63.3339 144.431 63.4011 144.377 63.4776C144.324 63.5542 144.276 63.6368 144.234 63.7254C144.192 63.8133 144.155 63.9042 144.123 63.9981C144.092 64.0915 144.064 64.1838 144.04 64.275L143.784 64.2079C143.81 64.1102 143.839 64.0138 143.871 63.9186C143.904 63.8228 143.941 63.7315 143.982 63.6449C144.025 63.5578 144.071 63.4774 144.122 63.4036C144.174 63.3301 144.231 63.2655 144.293 63.21C144.356 63.1545 144.426 63.1111 144.501 63.0797Z" fill="#2D333A"/>
<path d="M145.484 63.8477C145.541 63.8645 145.584 63.8928 145.615 63.9326C145.646 63.9725 145.665 64.02 145.672 64.0751C145.679 64.1295 145.674 64.1871 145.658 64.2479C145.637 64.3288 145.601 64.3986 145.551 64.4572C145.501 64.516 145.436 64.5565 145.357 64.5786C145.278 64.6007 145.185 64.5978 145.078 64.5699C144.988 64.5461 144.915 64.5146 144.86 64.4754C144.806 64.4355 144.766 64.3895 144.741 64.3373C144.716 64.2845 144.703 64.2272 144.702 64.1653C144.701 64.1035 144.709 64.0393 144.727 63.9727C144.727 63.972 144.727 63.9714 144.727 63.9707C144.727 63.9701 144.728 63.9694 144.728 63.9688L144.984 64.0359C144.984 64.0366 144.984 64.0372 144.983 64.0379C144.983 64.0385 144.983 64.0392 144.983 64.0398C144.964 64.1103 144.959 64.1674 144.967 64.2109C144.975 64.2545 144.993 64.2884 145.022 64.3125C145.051 64.3367 145.089 64.3548 145.135 64.3668C145.196 64.3829 145.25 64.3764 145.297 64.3473C145.345 64.3176 145.381 64.2598 145.403 64.1738C145.412 64.1408 145.416 64.1098 145.416 64.0807C145.416 64.051 145.41 64.0242 145.398 64.0002C145.386 63.9758 145.367 63.9542 145.341 63.9356C145.315 63.917 145.279 63.9018 145.235 63.8901L145.184 63.8769L145.233 63.6906L145.284 63.7038C145.328 63.7153 145.366 63.7191 145.398 63.715C145.43 63.711 145.457 63.7015 145.479 63.6865C145.502 63.671 145.52 63.6516 145.534 63.6283C145.548 63.6051 145.559 63.5799 145.566 63.5527C145.584 63.4841 145.578 63.4295 145.55 63.3888C145.522 63.3482 145.477 63.3201 145.417 63.3043C145.351 63.2868 145.292 63.2907 145.24 63.3159C145.188 63.3411 145.15 63.401 145.126 63.4954L144.869 63.4283C144.886 63.3649 144.911 63.3081 144.943 63.2578C144.976 63.2077 145.017 63.167 145.066 63.1356C145.116 63.1036 145.173 63.0838 145.24 63.0763C145.307 63.0683 145.382 63.0753 145.466 63.0973C145.574 63.1255 145.656 63.1665 145.714 63.2203C145.773 63.2743 145.81 63.3354 145.827 63.4033C145.844 63.4709 145.844 63.5386 145.827 63.6065C145.812 63.6609 145.789 63.7084 145.757 63.749C145.725 63.7897 145.686 63.8195 145.639 63.8385C145.594 63.8569 145.542 63.86 145.484 63.8477Z" fill="#2D333A"/>
<path d="M146.695 63.438L146.319 64.8722L146.065 64.8056L146.376 63.6188C146.368 63.6236 146.348 63.6278 146.318 63.6315C146.288 63.6347 146.252 63.6361 146.211 63.6357C146.17 63.6347 146.129 63.6307 146.086 63.6238L146.141 63.4161C146.184 63.4218 146.226 63.4232 146.267 63.4202C146.309 63.4175 146.346 63.412 146.378 63.4037C146.41 63.3948 146.433 63.3846 146.447 63.3729L146.695 63.438Z" fill="#2D333A"/>
<g opacity="0.3">
<path d="M145.2 66.6144L137.776 64.4747C137.519 64.4004 137.379 64.1224 137.473 63.8715C137.558 63.6448 137.805 63.5232 138.037 63.5934L145.43 65.8347C145.654 65.9025 145.774 66.1445 145.694 66.3639C145.62 66.5641 145.405 66.6734 145.2 66.6144Z" fill="white"/>
<path d="M153.872 69.2249L148.083 67.4767C147.86 67.4093 147.739 67.1679 147.82 66.949C147.893 66.7486 148.11 66.6397 148.314 66.6999L154.116 68.406C154.349 68.4745 154.478 68.7234 154.4 68.9534C154.326 69.1714 154.092 69.2914 153.872 69.2249Z" fill="white"/>
</g>
</svg>
